<?xml version="1.0" encoding="utf-8"?>
<svg xmlns="http://www.w3.org/2000/svg" height="48" width="48" viewBox="0 0 48 48">
  <g>
    <path id="path1" transform="rotate(0,24,24) translate(7.23481823437281,-3.5527136788005E-15) scale(1.12499121583406,1.12499121583406)  " fill="#FFFFFF" d="M26.075001,40.952L29.343,40.952 29.343,42.667 26.075001,42.667z M0.66900011,40.952L3.9369998,40.952 3.9369998,42.667 0.66900011,42.667z M23.698,31.41L25.615,31.41 25.615,38.848 23.698,38.848z M20.469,31.41L22.386,31.41 22.386,38.848 20.469,38.848z M2.32,28.624001L2.32,39.129002 27.483999,39.129002 27.483999,28.624001z M7.1440001,18.225L9.0609999,18.225 9.0609999,25.660999 7.1440001,25.660999z M3.9149997,18.225L5.8319998,18.225 5.8319998,25.660999 3.9149997,25.660999z M2.32,15.436001L2.32,25.943001 27.483999,25.943001 27.483999,15.436001z M9.2889996,6.2579999L11.206,6.2579999 11.206,12.784 9.2889996,12.784z M6.7160001,4.3809996L8.6330004,4.3809996 8.6330004,12.784 6.7160001,12.784z M4.1300001,4.3809996L6.047,4.3809996 6.047,12.784 4.1300001,12.784z M2.32,2.5729997L2.32,13.079 27.483999,13.079 27.483999,2.5729997z M0,0L29.805,0 29.805,40.950001 0,40.950001z" />
  </g>
</svg>