<?xml version="1.0" encoding="UTF-8" standalone="no"?>
<svg xmlns="http://www.w3.org/2000/svg" viewBox="0 0 464.69557 116.48516">
<style type="text/css">
	.cls-1{fill:#f9b211;}
    .cls-2{fill:#7f1710;}
    .cls-3{fill:#293d90;}
    .cls-4{fill:#3e7830;}
    .cls-5{fill:#747474;}
    .cls-6{
        fill: #fff;
        stroke: #b3b3b3;
        stroke-width: 2;
    }
    .svg-plus {
        fill: #f9b211;
        stroke: #f9b211;
        stroke-width: 2;
    }
</style>
    <rect class="cls-1" width="21.370001" height="21.370001" x="0" y="21.335274" />
    <rect class="cls-2" y="45.92527" width="21.370001" height="21.370001" x="0" />
    <rect class="cls-3" y="70.525154" width="21.370001" height="21.370001" x="0" />
    <rect class="cls-4" x="0" y="95.11515" width="21.370001" height="21.370001" />
    <rect class="cls-5" x="26.07" width="21.370001" height="21.370001" y="21.335274" />
    <rect class="cls-5" x="26.07" y="45.92527" width="21.370001" height="21.370001" />
    <rect class="cls-5" x="26.07" y="70.525154" width="21.370001" height="21.370001" />
    <rect class="cls-5" x="26.07" y="95.11515" width="21.370001" height="21.370001" />
    <path class="cls-6" d="m 71.78,32.855248 q 14.64,0 24.52,10 9.88,10 9.88,30.56 0,20.55 -9.82,31.089902 -9.82,10.54 -26.55,10.54 -16.74,0 -26.25,-10.48 -9.51,-10.479902 -9.51,-30.499902 a 51.26,51.26 0 0 1 3.33,-19.24 31.63,31.63 0 0 1 8.74,-12.8 38.79,38.79 0 0 1 25.66,-9.17 z m -22.29,40.62 q 0,29.549902 21.24,29.549902 11.36,0 15.93,-9.049902 4.2,-8 4.2,-19.54 a 48.13,48.13 0 0 0 -3.74,-19.06 16.75,16.75 0 0 0 -6.36,-7.51 q -4.26,-2.74 -11.05,-2.74 a 17.08,17.08 0 0 0 -11.59,4.29 22.18,22.18 0 0 0 -6.73,10.37 46.93,46.93 0 0 0 -1.9,13.69 z" />
    <path class="cls-6" d="m 217.33,43.935248 -4.08,0.36 q -3.21,0.24 -4.08,4.29 L 193.62,113.50515 H 176.7 l -13,-52.999902 h -0.37 l -12.6,52.999902 h -17.38 l -17,-68.739902 -7,-0.36 v -10.13 h 30.63 v 9.65 l -4.16,0.35 q -3.83,0.36 -3.83,3.1 a 5.28,5.28 0 0 0 0.12,1.07 l 10.74,46 h 0.49 l 12.84,-53.85 h 15.94 l 13.34,54.09 h 0.25 l 10.5,-49.8 -6.67,-0.48 v -10.13 h 27.79 v 9.65 z" />
    <path class="cls-6" d="M 229.56,99.565162 V 44.765248 l -7,-0.36 v -10.13 h 29.89 v 9.65 l -4.08,0.36 q -3.58,0.36 -3.58,3.81 v 54.919902 l 7,0.36 v 10.13 H 221.9 v -9.65 l 4.08,-0.36 a 5,5 0 0 0 2.72,-1 3.86,3.86 0 0 0 0.86,-2.929988 z" />
    <path class="cls-6" d="m 260.06,113.50515 v -9.65 l 4.08,-0.36 q 3.58,-0.36 3.58,-3.34 V 44.765248 l -7,-0.36 v -10.13 h 33.8 q 18.16,0 28.34,9.29 10.18,9.29 10.19,27.52 a 57.14,57.14 0 0 1 -3.09,19.72 32.23,32.23 0 0 1 -8.4,13.159902 q -10.62,9.53 -26.43,9.53 h -35.07 z m 22.72,-67.669902 v 56.239902 h 12.6 q 10.62,0 16.55,-7.389902 5.93,-7.39 5.93,-21.41 0,-27.4 -24.08,-27.4 h -11 z" />
    <path class="svg-plus" d="m 399.33776,0.63336164 -0.96936,0.47600096 -0.91619,0.529423 c -4.64771,3.5819293 -7.42706,9.0986254 -10.11961,14.2121104 -3.59657,8.060343 -6.39625,16.671371 -7.17066,25.478729 -2.8973,5.421299 -5.62581,11.008801 -8.84404,16.279851 -0.8796,2.557553 -7.41705,8.25098 -2.77785,8.95546 3.77491,-5.135874 7.10175,-10.59686 9.98825,-16.278555 1.79043,-4.813875 1.04935,0.579008 1.63212,2.934847 0.29561,5.398057 4.71456,11.504201 10.66446,8.333082 3.64334,-2.452297 6.35139,-6.107783 9.17065,-9.445567 1.56177,-1.090212 4.68592,-8.066873 5.00975,-6.063819 -0.28022,4.060674 -1.3658,11.360408 4.10856,12.117649 5.09477,0.089 7.80321,-5.198117 10.63753,-8.652739 2.66084,-5.510216 0.78816,1.832678 1.92985,4.273391 0.50816,6.887553 10.63444,6.386025 12.56804,1.107476 -2.94897,-0.575669 -8.47886,3.151648 -9.96393,-2.266222 -1.95492,-5.515344 0.18517,-11.439454 2.8519,-16.323713 3.21945,-3.817172 -0.7273,-8.891482 -2.92985,-2.625834 -2.16717,7.191406 -6.60853,13.530796 -11.57997,19.106773 -5.83099,5.817468 -6.53377,-5.678549 -4.72333,-9.226246 0.96105,-6.423252 5.95547,-11.250992 7.51137,-17.393632 0.67125,-6.795344 -4.85687,-0.204601 -5.4686,2.737884 -2.74783,7.407332 -7.20564,14.021473 -11.99236,20.268103 -3.33324,3.556582 -6.24796,9.55048 -11.65706,9.535034 -4.28996,-3.501853 -4.67987,-9.923733 -4.20563,-15.054225 1.18106,-2.674406 2.85514,-5.169551 4.16069,-7.829288 3.70896,-7.51032 8.3023,-14.520484 12.41296,-21.807519 1.84423,-3.269272 6.08774,-12.3198544 0.67231,-13.37845436 z m 0.31423,3.42126796 c 0,0 0.31007,1.7527542 -2.38109,6.2703384 -2.69117,4.517581 -8.81034,15.33557 -13.09638,23.612729 1.97973,-6.653329 4.36352,-14.027955 6.98478,-19.08875 1.66379,-2.9622 5.04723,-9.5843761 8.49269,-10.7943174 z m 56.00218,17.4600914 c -0.78911,0.0032 -1.56188,0.0849 -2.28142,0.243429 l -0.8671,0.126813 -0.84582,0.14767 c -4.736,1.127329 -11.24707,3.139531 -12.12763,8.618431 -0.85109,6.383283 6.81829,8.436982 11.31896,10.667483 3.55537,2.124218 10.44134,4.854592 8.77759,9.877278 -4.69417,4.925825 -12.08131,8.008893 -18.85639,6.441664 -4.2131,-3.505118 -4.98133,2.548265 -0.93898,3.426699 5.35194,1.24459 11.26906,0.22193 16.17801,-2.172835 5.04705,-2.203367 8.56998,-8.099702 5.85992,-13.416462 -4.17949,-6.284884 -12.18195,-7.463534 -17.97257,-11.685521 -5.28182,-3.043427 2.77905,-6.605626 5.46316,-7.689432 3.95092,-2.218986 14.26851,-2.300854 11.89898,4.519192 -0.11092,3.731671 -6.12757,6.169418 -4.56654,9.553716 4.44098,-1.517524 7.0326,-6.980658 7.34395,-11.51331 0.61319,-4.88539 -4.12296,-7.162047 -8.38412,-7.144815 z m -88.48435,9.452944 c -0.37318,0.0075 -0.76859,0.0489 -1.18698,0.129855 -7.10347,1.21552 -11.91416,7.765182 -14.98518,13.790387 -1.31588,-0.480075 0.41934,-11.807191 -3.19325,-12.289426 -0.0616,5.478638 1.20169,10.87097 1.00065,16.343913 -0.19307,2.644425 -1.52414,5.158163 -2.07469,7.81365 -2.36855,9.729741 -3.86335,20.032214 -2.12465,29.990983 0.74895,6.165585 4.40391,-0.07454 3.86145,-3.258827 0.0264,-10.157098 1.9171,-20.208673 2.10379,-30.347777 1.92242,-5.676402 4.99512,-11.250009 9.45969,-15.389729 2.41436,-2.730419 10.18481,-5.951675 9.63622,0.206514 -1.3364,6.300897 -6.24651,10.567833 -10.41038,15.182574 -2.76666,3.066222 -7.71049,4.398759 -8.63081,7.713106 2.15573,2.909098 5.91525,-0.411182 7.87446,-2.351128 5.31115,-4.190589 10.13222,-9.262609 12.42275,-15.768901 2.42304,-4.02066 1.84452,-11.867348 -3.75307,-11.765209 z" />
</svg>