<svg id="Ebene_1" data-name="Ebene 1" xmlns="http://www.w3.org/2000/svg" viewBox="0 0 879.67 306.67"><defs><style>.cls-1{fill:#fff;stroke:#fff;stroke-miterlimit:10;}.cls-2{fill:#ef7d00;}</style></defs><title>ids2019_farbig_auf_dunkel_fuer_kleine_Formate</title><path class="cls-1" d="M310.15,151.94h.3a2,2,0,0,0,1.44-.64,2.51,2.51,0,0,0,.62-1.8V132.72a2.33,2.33,0,0,0-.7-1.94,2.77,2.77,0,0,0-1.66-.57V130h7.1v.26a3,3,0,0,0-1.66.56,2.27,2.27,0,0,0-.72,1.95v16.22a2.39,2.39,0,0,0,.72,2,3.9,3.9,0,0,0,2.37.56h1.92a5.51,5.51,0,0,0,2-.3,2.64,2.64,0,0,0,1.18-.92,8.75,8.75,0,0,0,.89-1.75h.26l-.85,3.65H310.15Z"/><path class="cls-1" d="M328.68,130.21V130h13.24v3.51h-.21c0-1.88-1.24-2.81-3.74-2.81h-4.63v10.09h4.07a5.62,5.62,0,0,0,2.16-.39,1.94,1.94,0,0,0,1.09-1.79h.22v5h-.22a2.59,2.59,0,0,0-.52-1.32,2,2,0,0,0-.74-.62,1.81,1.81,0,0,0-.66-.15,6.9,6.9,0,0,0-1.13-.09h-4.27v7.89a3.21,3.21,0,0,0,.34,1.54c.22.44.75.65,1.57.65h3.31a4.82,4.82,0,0,0,2-.34,3.12,3.12,0,0,0,1.22-1,5.92,5.92,0,0,0,.74-1.49h.21l-.77,3.48H328.68v-.24h.3a2.17,2.17,0,0,0,1.39-.57,2.34,2.34,0,0,0,.67-1.87V132.75a3.3,3.3,0,0,0-.46-1.78,1.7,1.7,0,0,0-1.6-.76Z"/><path class="cls-1" d="M355.67,130v.26a2.65,2.65,0,0,0-1.69.56,2.25,2.25,0,0,0-.69,1.86V149.5a2.24,2.24,0,0,0,.74,1.86,2.57,2.57,0,0,0,1.64.58v.24h-7v-.24a2.53,2.53,0,0,0,1.66-.57,2.25,2.25,0,0,0,.71-1.87V132.63a2.24,2.24,0,0,0-.71-1.91,2.73,2.73,0,0,0-1.66-.51V130Z"/><path class="cls-1" d="M370.35,152.18H362v-.24h.3a2,2,0,0,0,1.46-.61,2.48,2.48,0,0,0,.61-1.83V132.72a2.71,2.71,0,0,0-.57-1.85,1.89,1.89,0,0,0-1.53-.66H362V130h7.26a8,8,0,0,1,2.64.42,6.18,6.18,0,0,1,2.05,1.15,5.33,5.33,0,0,1,1.28,1.66,4.43,4.43,0,0,1,.46,2,4.34,4.34,0,0,1-1.3,3.26,7.81,7.81,0,0,1-3.49,1.84v.06a16,16,0,0,1,1.92.32,7.21,7.21,0,0,1,1.66.59,6.16,6.16,0,0,1,1.39,1,5.85,5.85,0,0,1,1,1.19,5,5,0,0,1,.62,1.41,5.87,5.87,0,0,1,.21,1.56,5,5,0,0,1-.89,3,6.47,6.47,0,0,1-2,1.9A9.33,9.33,0,0,1,370.35,152.18Zm-3.66-12h1.45a6.39,6.39,0,0,0,2.54-.37,5.72,5.72,0,0,0,1-.66,4.26,4.26,0,0,0,1-1.33,4.72,4.72,0,0,0,.47-2.19,5.44,5.44,0,0,0-.32-1.89,4.67,4.67,0,0,0-.92-1.59,4.19,4.19,0,0,0-3.24-1.48,7.16,7.16,0,0,0-2,.33Zm2.28.67h-2.28v8a4.93,4.93,0,0,0,.16,1.33,1.68,1.68,0,0,0,.87.93,4.7,4.7,0,0,0,2.19.39,4.79,4.79,0,0,0,4.36-2,5.82,5.82,0,0,0,.89-3.16,5.64,5.64,0,0,0-.45-2.29,4.56,4.56,0,0,0-1.22-1.71,5.55,5.55,0,0,0-1.95-1.08A8.14,8.14,0,0,0,369,140.83Z"/><path class="cls-1" d="M405.92,130v.26a4.67,4.67,0,0,0-1.33.33,1.5,1.5,0,0,0-.76.85,5,5,0,0,0-.27,1.85v19.5h-.15l-17.07-19v13.67a17.39,17.39,0,0,0,.13,2.53,3.19,3.19,0,0,0,.4,1.2,2.36,2.36,0,0,0,1.94.84v.24h-5.56v-.24a2.75,2.75,0,0,0,1.45-.4,2.08,2.08,0,0,0,.74-1.3,13.26,13.26,0,0,0,.22-2.84V132.9l-.74-.83a5.91,5.91,0,0,0-1.57-1.41,5.13,5.13,0,0,0-1.46-.45V130h4.18l16.81,18.84V134.44a17.51,17.51,0,0,0-.13-2.42,2.09,2.09,0,0,0-.68-1.28,2.76,2.76,0,0,0-1.73-.53V130Z"/><path class="cls-1" d="M419.25,130v.26a2.65,2.65,0,0,0-1.69.56,2.25,2.25,0,0,0-.69,1.86V149.5a2.24,2.24,0,0,0,.74,1.86,2.57,2.57,0,0,0,1.64.58v.24h-7v-.24a2.53,2.53,0,0,0,1.66-.57,2.25,2.25,0,0,0,.71-1.87V132.63a2.24,2.24,0,0,0-.71-1.91,2.73,2.73,0,0,0-1.66-.51V130Z"/><path class="cls-1" d="M441.32,130.8H430.68a6.72,6.72,0,0,0-2.15.29,2.71,2.71,0,0,0-1.33,1,4.87,4.87,0,0,0-.73,1.93h-.24V130h18.2v.44l-15.39,21h10.67a8,8,0,0,0,2.78-.38,3.14,3.14,0,0,0,1.44-.94,8.71,8.71,0,0,0,.91-1.56h.24l-1,3.71H426v-.47Z"/><path class="cls-1" d="M450.36,140.53h8v1.24h-8Z"/><path class="cls-1" d="M470.53,130v.26a2.63,2.63,0,0,0-1.69.56,2.25,2.25,0,0,0-.69,1.86V149.5a2.23,2.23,0,0,0,.73,1.86,2.62,2.62,0,0,0,1.65.58v.24h-7v-.24a2.56,2.56,0,0,0,1.67-.57,2.25,2.25,0,0,0,.7-1.87V132.63a2.23,2.23,0,0,0-.7-1.91,2.76,2.76,0,0,0-1.67-.51V130Z"/><path class="cls-1" d="M499,130v.26a4.75,4.75,0,0,0-1.34.33,1.54,1.54,0,0,0-.76.85,5,5,0,0,0-.27,1.85v19.5h-.15l-17.07-19v13.67a17.07,17.07,0,0,0,.14,2.53,3,3,0,0,0,.39,1.2,2.37,2.37,0,0,0,2,.84v.24h-5.57v-.24a2.75,2.75,0,0,0,1.45-.4,2.08,2.08,0,0,0,.75-1.3,14.11,14.11,0,0,0,.21-2.84V132.9l-.74-.83a5.76,5.76,0,0,0-1.57-1.41,5.13,5.13,0,0,0-1.46-.45V130h4.18L496,148.79V134.44a16,16,0,0,0-.13-2.42,2,2,0,0,0-.68-1.28,2.72,2.72,0,0,0-1.72-.53V130Z"/><path class="cls-1" d="M516.6,134.23h-.24a4.87,4.87,0,0,0-1.41-2.84,4.69,4.69,0,0,0-5.44-.61,4.21,4.21,0,0,0-1.54,1.65,5.09,5.09,0,0,0-.54,2.38,4.85,4.85,0,0,0,.32,1.85,4.19,4.19,0,0,0,1,1.43,8.5,8.5,0,0,0,1.49,1.15c.58.36,1.35.81,2.33,1.35a17.63,17.63,0,0,1,3.8,2.68,4.92,4.92,0,0,1,1.36,3.66,5.64,5.64,0,0,1-2.94,4.9,7.25,7.25,0,0,1-3.67.85,9.3,9.3,0,0,1-2.43-.29,12.09,12.09,0,0,1-2.14-.83,2.54,2.54,0,0,0-.62-.15.42.42,0,0,0-.42.23,7.72,7.72,0,0,0-.26,1H505v-5.57h.26a6.27,6.27,0,0,0,2.11,3.7,6,6,0,0,0,3.82,1.25,5.1,5.1,0,0,0,2.71-.63,3.49,3.49,0,0,0,1.41-1.54,4.58,4.58,0,0,0,.39-1.81,4.23,4.23,0,0,0-1.14-3.06,13.77,13.77,0,0,0-3.46-2.42c-1.07-.58-1.86-1-2.37-1.36a9.81,9.81,0,0,1-1.56-1.25,5.7,5.7,0,0,1-1.26-1.82,5.89,5.89,0,0,1-.47-2.41,6,6,0,0,1,.83-3,6.26,6.26,0,0,1,2.35-2.3,6.87,6.87,0,0,1,3.46-.87,9.77,9.77,0,0,1,3,.5,1.48,1.48,0,0,0,.65.12c.33,0,.56-.23.68-.68h.24Z"/><path class="cls-1" d="M541.74,134.29h-.24c-.12-1.45-.54-2.39-1.27-2.82a5.32,5.32,0,0,0-2.72-.64h-4.42V149.5a2.19,2.19,0,0,0,2.41,2.44v.24h-7.07v-.24a2.73,2.73,0,0,0,1.68-.58,2.25,2.25,0,0,0,.69-1.86V130.83h-4.42a5.25,5.25,0,0,0-2.71.64c-.73.43-1.16,1.37-1.28,2.82h-.24v-5.44h.24a3.49,3.49,0,0,0,.42.56,1.6,1.6,0,0,0,.47.31,2.19,2.19,0,0,0,.67.18,6.21,6.21,0,0,0,.92,0h14.39a2.6,2.6,0,0,0,2.24-1.1h.24Z"/><path class="cls-1" d="M554.6,130v.26a2.61,2.61,0,0,0-1.69.56,2.23,2.23,0,0,0-.7,1.86V149.5a2.24,2.24,0,0,0,.74,1.86,2.58,2.58,0,0,0,1.65.58v.24h-7.05v-.24a2.58,2.58,0,0,0,1.67-.57,2.28,2.28,0,0,0,.7-1.87V132.63a2.26,2.26,0,0,0-.7-1.91,2.78,2.78,0,0,0-1.67-.51V130Z"/><path class="cls-1" d="M580,134.29h-.24c-.11-1.45-.53-2.39-1.27-2.82a5.28,5.28,0,0,0-2.71-.64H571.3V149.5a2.19,2.19,0,0,0,2.42,2.44v.24h-7.08v-.24a2.69,2.69,0,0,0,1.68-.58,2.25,2.25,0,0,0,.69-1.86V130.83h-4.42a5.25,5.25,0,0,0-2.71.64c-.73.43-1.15,1.37-1.27,2.82h-.25v-5.44h.25a3.49,3.49,0,0,0,.42.56,1.37,1.37,0,0,0,.47.31,2.12,2.12,0,0,0,.67.18,6.06,6.06,0,0,0,.91,0h14.4a2.59,2.59,0,0,0,2.23-1.1H580Z"/><path class="cls-1" d="M605.57,152.18h-4.66V148.5l-.07-.06a6.57,6.57,0,0,1-2.89,3.29,8.42,8.42,0,0,1-4,1,8.21,8.21,0,0,1-4.27-1.13,7.36,7.36,0,0,1-2.78-2.79,7.11,7.11,0,0,1-.8-2.46,20.43,20.43,0,0,1-.17-2.64V132.69a3.22,3.22,0,0,0-.4-1.68c-.26-.45-.9-.72-1.91-.8V130h7v.26a2.5,2.5,0,0,0-2,.89,3,3,0,0,0-.42,1.59v10.88a13.06,13.06,0,0,0,.68,4.9,5.72,5.72,0,0,0,2.17,2.64,5.87,5.87,0,0,0,3.29.95,7.49,7.49,0,0,0,1.82-.27,5.94,5.94,0,0,0,2-.91q2.76-1.87,2.76-6V132.69a3.12,3.12,0,0,0-.42-1.63c-.28-.48-1-.76-2-.85V130h7.1v.26a2.21,2.21,0,0,0-2,.86,3.24,3.24,0,0,0-.44,1.59V149.5a2.72,2.72,0,0,0,.3,1.38,1.6,1.6,0,0,0,.81.71,6.55,6.55,0,0,0,1.27.35Z"/><path class="cls-1" d="M628.77,134.29h-.24c-.11-1.45-.53-2.39-1.27-2.82a5.28,5.28,0,0,0-2.71-.64h-4.43V149.5a2.19,2.19,0,0,0,2.42,2.44v.24h-7.08v-.24a2.69,2.69,0,0,0,1.68-.58,2.25,2.25,0,0,0,.69-1.86V130.83h-4.42a5.25,5.25,0,0,0-2.71.64c-.73.43-1.15,1.37-1.27,2.82h-.25v-5.44h.25a3.49,3.49,0,0,0,.42.56,1.37,1.37,0,0,0,.47.31,2.12,2.12,0,0,0,.67.18,6.06,6.06,0,0,0,.91,0h14.4a2.59,2.59,0,0,0,2.23-1.1h.24Z"/><path class="cls-1" d="M642.74,130.21V130h13.34v3.38h-.24a3.4,3.4,0,0,0-.76-1.86,2.83,2.83,0,0,0-2.31-.82h-5.34v10.06h5a2.5,2.5,0,0,0,1.93-.58,2.94,2.94,0,0,0,.67-1.6h.24v5H655a2.68,2.68,0,0,0-.63-1.57,2.57,2.57,0,0,0-2-.61h-5v8.11a2.45,2.45,0,0,0,.64,1.77,2,2,0,0,0,1.52.67h.32v.24h-7.17v-.24h.3a1.9,1.9,0,0,0,1.5-.68,2.56,2.56,0,0,0,.6-1.76V132.69a2.43,2.43,0,0,0-.65-2,2.28,2.28,0,0,0-1.45-.52Z"/><path class="cls-1" d="M683.58,152.18h-4.66V148.5l-.08-.06a6.47,6.47,0,0,1-2.89,3.29,8.36,8.36,0,0,1-4,1,8.17,8.17,0,0,1-4.26-1.13,7.36,7.36,0,0,1-2.78-2.79,6.9,6.9,0,0,1-.8-2.46,20.43,20.43,0,0,1-.17-2.64V132.69a3.22,3.22,0,0,0-.4-1.68c-.27-.45-.9-.72-1.91-.8V130h7v.26a2.5,2.5,0,0,0-2,.89,3.05,3.05,0,0,0-.43,1.59v10.88a13.27,13.27,0,0,0,.68,4.9,5.8,5.8,0,0,0,2.18,2.64,5.87,5.87,0,0,0,3.29.95,7.49,7.49,0,0,0,1.82-.27,6,6,0,0,0,2-.91q2.76-1.87,2.76-6V132.69a3.12,3.12,0,0,0-.42-1.63c-.28-.48-1-.76-2-.85V130h7.1v.26a2.21,2.21,0,0,0-2,.86,3.13,3.13,0,0,0-.44,1.59V149.5a2.83,2.83,0,0,0,.29,1.38,1.67,1.67,0,0,0,.82.71,6.35,6.35,0,0,0,1.27.35Zm-14-27.1A1.43,1.43,0,0,1,671,126.5a1.48,1.48,0,0,1-.4,1,1.34,1.34,0,0,1-1,.44,1.51,1.51,0,0,1-1.45-1.45,1.33,1.33,0,0,1,.44-1A1.45,1.45,0,0,1,669.55,125.08Zm6.1,0a1.39,1.39,0,0,1,1,.42,1.41,1.41,0,0,1,.42,1,1.44,1.44,0,0,1-.41,1,1.35,1.35,0,0,1-1,.45,1.44,1.44,0,0,1-1-2.48A1.43,1.43,0,0,1,675.65,125.05Z"/><path class="cls-1" d="M689.1,130.27h-.3V130h7.7a7.76,7.76,0,0,1,3.14.58,5.19,5.19,0,0,1,2,1.46,5.53,5.53,0,0,1,1,1.86,6.57,6.57,0,0,1,.3,1.93,5.58,5.58,0,0,1-.5,2.31,5,5,0,0,1-1.55,1.91,6,6,0,0,1-2.62,1.09v.06A9.33,9.33,0,0,1,702,145l2,3.4a10.46,10.46,0,0,0,2.18,2.88,3.24,3.24,0,0,0,1.62.68v.24h-4c-.17-.22-.33-.43-.48-.64l-.48-.66-.45-.68a4.31,4.31,0,0,0-.35-.52l-2.66-4.39a11.32,11.32,0,0,0-1.63-2.19,6.3,6.3,0,0,0-1.57-1.19,4.34,4.34,0,0,0-1.3-.46,9.06,9.06,0,0,0-1.37-.09v8.14a2.19,2.19,0,0,0,2.42,2.44v.24H688.8v-.24a3.35,3.35,0,0,0,1.18-.25,1.9,1.9,0,0,0,.85-.75,2.65,2.65,0,0,0,.34-1.44V132.69a2.36,2.36,0,0,0-.65-1.88A2.18,2.18,0,0,0,689.1,130.27Zm4.36,10.5h1.27a8.06,8.06,0,0,0,3.27-.57,3.79,3.79,0,0,0,1.85-1.64,5.43,5.43,0,0,0,.57-2.6,6.51,6.51,0,0,0-.51-2.51,4.74,4.74,0,0,0-1.75-2.07,5.77,5.77,0,0,0-3.31-.84,5.9,5.9,0,0,0-1.39.14Z"/><path class="cls-1" d="M110.15,129.05v.84a7.87,7.87,0,0,0-5.28,1.85c-1.44,1.23-2.17,3.27-2.17,6.12v55.71q0,4.25,2.31,6.16a7.84,7.84,0,0,0,5.14,1.92v.79h-22v-.79a7.8,7.8,0,0,0,5.21-1.87q2.19-1.87,2.19-6.21V137.86q0-4.58-2.19-6.27a8.27,8.27,0,0,0-5.21-1.7v-.84Z"/><path class="cls-1" d="M117.27,129.89v-.84H144a49.19,49.19,0,0,1,10.34,1,41.81,41.81,0,0,1,8.48,2.71,35.75,35.75,0,0,1,6.48,3.71,30.66,30.66,0,0,1,4.62,4.12,36.69,36.69,0,0,1,5.61,7.74,37.5,37.5,0,0,1,3.46,9,41.08,41.08,0,0,1,1.16,9.77,39.56,39.56,0,0,1-1.13,9.56,35.32,35.32,0,0,1-3.25,8.4,34.77,34.77,0,0,1-5.07,7,36.71,36.71,0,0,1-6.86,5.68,31.37,31.37,0,0,1-7.68,3.39,42.62,42.62,0,0,1-11.73,1.29H117.27v-.79h.94a5.33,5.33,0,0,0,4.85-2.59,10.28,10.28,0,0,0,1.61-5.49V138.16a11.2,11.2,0,0,0-.88-4.68,5.92,5.92,0,0,0-2.33-2.74,6.41,6.41,0,0,0-3.25-.85Zm14.56,2.64v58.16q0,4.27,1.29,6.3a6.17,6.17,0,0,0,4,2.62,41.05,41.05,0,0,0,8,.59,44.33,44.33,0,0,0,12.72-1.57q5.19-1.56,10-7a31.18,31.18,0,0,0,5.75-9.86,40.77,40.77,0,0,0,2.16-14.11,49.12,49.12,0,0,0-1.74-12.93,35.16,35.16,0,0,0-5.32-11.38,27.93,27.93,0,0,0-10.3-8.82,33.16,33.16,0,0,0-15.15-3.19A70.69,70.69,0,0,0,131.83,132.53Z"/><path class="cls-1" d="M226.2,143.15h-.75A16.33,16.33,0,0,0,221,133.8a14,14,0,0,0-17-2,13.24,13.24,0,0,0-4.8,5.43,17.42,17.42,0,0,0-1.7,7.87,17.06,17.06,0,0,0,1,6.11,13.9,13.9,0,0,0,3,4.7,27.35,27.35,0,0,0,4.67,3.82c1.79,1.18,4.21,2.66,7.26,4.46A54,54,0,0,1,225.35,173q4.25,4.41,4.24,12.08a19.29,19.29,0,0,1-2.28,9.05,18.27,18.27,0,0,1-6.91,7.15A21.75,21.75,0,0,1,209,204.09a27.21,27.21,0,0,1-7.59-1,39,39,0,0,1-6.69-2.72,7.3,7.3,0,0,0-1.93-.5,1.26,1.26,0,0,0-1.3.75,25,25,0,0,0-.82,3.24h-.8V185.5h.8q1.69,8.07,6.6,12.21a17.85,17.85,0,0,0,11.92,4.14,15.14,15.14,0,0,0,8.46-2.1,11.16,11.16,0,0,0,4.41-5.08,15.75,15.75,0,0,0,1.22-6,14.43,14.43,0,0,0-3.56-10.09,43.6,43.6,0,0,0-10.81-8c-3.33-1.92-5.8-3.42-7.4-4.48a30,30,0,0,1-4.88-4.14,19,19,0,0,1-3.93-6,21.15,21.15,0,0,1,1.13-17.87,19.9,19.9,0,0,1,7.35-7.59,20.51,20.51,0,0,1,10.79-2.87,28.82,28.82,0,0,1,9.38,1.65,4.44,4.44,0,0,0,2,.39c1,0,1.74-.74,2.12-2.24h.75Z"/><path class="cls-2" d="M269.63,49c1,18.76,1.57,37.53,1.94,56.29.23,9.38.28,18.76.42,28.14l.13,28.15L272,189.76c-.14,9.38-.18,18.76-.41,28.15-.37,18.76-.91,37.52-1.95,56.28-1.05-18.76-1.59-37.52-2-56.28-.23-9.39-.27-18.77-.41-28.15l-.13-28.14.14-28.15c.13-9.38.18-18.76.41-28.14C268.05,86.57,268.59,67.8,269.63,49Z"/><path class="cls-1" d="M308.8,169.8v-.38H321a22.49,22.49,0,0,1,4.72.46,19.45,19.45,0,0,1,3.88,1.22,16.69,16.69,0,0,1,3,1.67,15.23,15.23,0,0,1,2.11,1.85,16.59,16.59,0,0,1,2.56,3.49,16.78,16.78,0,0,1,1.58,4,18.34,18.34,0,0,1,.53,4.4,17.25,17.25,0,0,1-.52,4.31,15.66,15.66,0,0,1-1.48,3.78A15.44,15.44,0,0,1,335,197.8a17.34,17.34,0,0,1-3.13,2.56,14.41,14.41,0,0,1-3.51,1.52,19.6,19.6,0,0,1-5.36.59H308.8v-.36h.43a2.45,2.45,0,0,0,2.22-1.17,4.56,4.56,0,0,0,.73-2.47V173.52a4.86,4.86,0,0,0-.4-2.1,2.68,2.68,0,0,0-1.06-1.24,3,3,0,0,0-1.49-.38Zm6.65,1.19v26.18A5.37,5.37,0,0,0,316,200a2.79,2.79,0,0,0,1.85,1.18,18.54,18.54,0,0,0,3.66.27,20.63,20.63,0,0,0,5.81-.71,10.25,10.25,0,0,0,4.58-3.15,13.86,13.86,0,0,0,2.63-4.44,18.06,18.06,0,0,0,1-6.35,21.91,21.91,0,0,0-.8-5.83,15.63,15.63,0,0,0-2.43-5.12,12.67,12.67,0,0,0-4.7-4,15.34,15.34,0,0,0-6.92-1.44A32.32,32.32,0,0,0,315.45,171Z"/><path class="cls-1" d="M345.48,169.8v-.38h18.9v5.2h-.3q0-4.17-5.34-4.17h-6.61v15h5.81a7.69,7.69,0,0,0,3.08-.58,2.91,2.91,0,0,0,1.55-2.67h.32v7.49h-.32a4.13,4.13,0,0,0-.73-2,2.87,2.87,0,0,0-1.07-.91,2.43,2.43,0,0,0-.93-.23,9.49,9.49,0,0,0-1.62-.13h-6.09V198.2a5.06,5.06,0,0,0,.48,2.29c.32.64,1.08,1,2.25,1h4.72a6.7,6.7,0,0,0,2.8-.52,4.22,4.22,0,0,0,1.73-1.44,8.48,8.48,0,0,0,1.06-2.22h.31l-1.1,5.19h-18.9v-.36h.43a3,3,0,0,0,2-.86,3.53,3.53,0,0,0,1-2.78v-24.9a5.13,5.13,0,0,0-.66-2.65,2.45,2.45,0,0,0-2.29-1.12Z"/><path class="cls-1" d="M403.53,202.47h-6.65V197l-.11-.09a9.51,9.51,0,0,1-4.13,4.89,11.5,11.5,0,0,1-5.73,1.55,11.26,11.26,0,0,1-6.08-1.68,10.65,10.65,0,0,1-4-4.15,10.92,10.92,0,0,1-1.14-3.65,33.27,33.27,0,0,1-.23-3.94V173.48a5,5,0,0,0-.58-2.49c-.38-.67-1.28-1.07-2.72-1.19v-.38h10v.38c-1.46.18-2.4.62-2.8,1.32a4.71,4.71,0,0,0-.6,2.36v16.18a20.3,20.3,0,0,0,1,7.29,8.56,8.56,0,0,0,3.1,3.92,8.06,8.06,0,0,0,4.69,1.42,10.38,10.38,0,0,0,2.61-.41,8.91,8.91,0,0,0,2.82-1.34q3.93-2.81,3.94-9V173.48a4.7,4.7,0,0,0-.61-2.42c-.4-.71-1.35-1.12-2.84-1.26v-.38h10.14v.38c-1.46.08-2.4.5-2.82,1.28a4.89,4.89,0,0,0-.62,2.35v25a4.25,4.25,0,0,0,.42,2.06,2.34,2.34,0,0,0,1.16,1.06,9.12,9.12,0,0,0,1.82.52Z"/><path class="cls-1" d="M437.72,175.86h-.34c-.16-2.16-.76-3.55-1.81-4.18a7.32,7.32,0,0,0-3.88-1h-6.3v27.75c0,2.35,1.14,3.56,3.44,3.64v.36h-10.1v-.36a3.78,3.78,0,0,0,2.4-.87,3.4,3.4,0,0,0,1-2.77V170.72h-6.3a7.26,7.26,0,0,0-3.87,1c-1,.63-1.65,2-1.82,4.18h-.34v-8.08h.34a5,5,0,0,0,.6.83,2.21,2.21,0,0,0,.67.46,3.28,3.28,0,0,0,1,.27,9.73,9.73,0,0,0,1.3.08h20.54a3.68,3.68,0,0,0,3.19-1.64h.34Z"/><path class="cls-1" d="M461.37,175.77H461a7.39,7.39,0,0,0-2-4.21,6,6,0,0,0-4.52-1.8,5.88,5.88,0,0,0-5.44,3.34,7.75,7.75,0,0,0-.78,3.54,7.59,7.59,0,0,0,.46,2.75,6.19,6.19,0,0,0,1.37,2.12,12.49,12.49,0,0,0,2.13,1.72c.82.53,1.93,1.2,3.32,2a24.63,24.63,0,0,1,5.42,4,7.42,7.42,0,0,1,1.94,5.44,8.64,8.64,0,0,1-1,4.07,8.27,8.27,0,0,1-3.16,3.22,10,10,0,0,1-5.23,1.26,12.48,12.48,0,0,1-3.46-.44,17.57,17.57,0,0,1-3.06-1.22,3.49,3.49,0,0,0-.88-.23.58.58,0,0,0-.6.34,9.79,9.79,0,0,0-.37,1.46h-.37v-8.28h.37a9.39,9.39,0,0,0,3,5.49,8.2,8.2,0,0,0,5.45,1.87,7,7,0,0,0,3.86-.95,5.09,5.09,0,0,0,2-2.28,7,7,0,0,0,.55-2.7,6.46,6.46,0,0,0-1.62-4.54,20.23,20.23,0,0,0-4.94-3.6c-1.52-.87-2.65-1.54-3.38-2a14.35,14.35,0,0,1-2.23-1.86,8.74,8.74,0,0,1-1.8-2.7,9.46,9.46,0,0,1,.52-8.05,9,9,0,0,1,3.36-3.42,9.47,9.47,0,0,1,4.93-1.29,13.43,13.43,0,0,1,4.28.74,2,2,0,0,0,.93.18c.47,0,.79-.34,1-1h.34Z"/><path class="cls-1" d="M496.78,176.82h-.37a7.15,7.15,0,0,0-2.18-4.1,11.1,11.1,0,0,0-4.08-2.46,13.74,13.74,0,0,0-4.31-.77,11.31,11.31,0,0,0-5.13,1.2,12.46,12.46,0,0,0-4.15,3.38,16.29,16.29,0,0,0-2.71,5.25,21.88,21.88,0,0,0-1,6.66,21.1,21.1,0,0,0,.94,6.44,15.12,15.12,0,0,0,2.73,5.17,12.07,12.07,0,0,0,4.17,3.31A12.23,12.23,0,0,0,486,202a16,16,0,0,0,5.3-1,13.67,13.67,0,0,0,5.21-3.4v1.28a24.9,24.9,0,0,1-5.24,3.38,14.4,14.4,0,0,1-5.94,1.08,16.27,16.27,0,0,1-6.83-1.42,15.56,15.56,0,0,1-5.22-3.85,16.92,16.92,0,0,1-3.23-5.45,18.54,18.54,0,0,1,1.18-15.2,17.46,17.46,0,0,1,6.18-6.55,15.77,15.77,0,0,1,8.46-2.41,22.9,22.9,0,0,1,6,.87l2.24.65a5.5,5.5,0,0,0,1.1.14,1.69,1.69,0,0,0,1.11-.26,1.87,1.87,0,0,0,.44-.93h.34Z"/><path class="cls-1" d="M527.72,184.54V173.48a4.06,4.06,0,0,0-.84-2.65,3.17,3.17,0,0,0-2.6-1v-.38h10.1v.38a3.13,3.13,0,0,0-2.59,1,4.16,4.16,0,0,0-.82,2.66v25q0,3.65,3.41,3.64v.36h-10.1v-.36a3.45,3.45,0,0,0,2.53-.91,3.63,3.63,0,0,0,.91-2.68v-13H509.55v12.92a3.67,3.67,0,0,0,.94,2.68,3.35,3.35,0,0,0,2.51,1v.36H502.9v-.36a3.22,3.22,0,0,0,2.51-1,3.82,3.82,0,0,0,.87-2.68v-25q0-3.67-3.38-3.68v-.38H513v.38a3.18,3.18,0,0,0-2.62,1,4.11,4.11,0,0,0-.83,2.66v11.06Z"/><path class="cls-1" d="M542,169.8v-.38h18.9v5.2h-.3q0-4.17-5.34-4.17h-6.61v15h5.81a7.69,7.69,0,0,0,3.08-.58,2.89,2.89,0,0,0,1.55-2.67h.33v7.49h-.33a4.13,4.13,0,0,0-.73-2,2.8,2.8,0,0,0-1.07-.91,2.43,2.43,0,0,0-.93-.23,9.49,9.49,0,0,0-1.62-.13h-6.09V198.2a4.93,4.93,0,0,0,.49,2.29c.32.64,1.07,1,2.25,1h4.71a6.66,6.66,0,0,0,2.8-.52,4.16,4.16,0,0,0,1.73-1.44,8.82,8.82,0,0,0,1.07-2.22h.3l-1.1,5.19H542v-.36h.43a3,3,0,0,0,2-.86,3.5,3.5,0,0,0,1-2.78v-24.9a5.13,5.13,0,0,0-.66-2.65,2.45,2.45,0,0,0-2.29-1.12Z"/><path class="cls-1" d="M603.86,175.77h-.34a7.39,7.39,0,0,0-2-4.21,6,6,0,0,0-4.52-1.8,5.88,5.88,0,0,0-5.44,3.34,8.43,8.43,0,0,0-.32,6.29,6.19,6.19,0,0,0,1.37,2.12,12.89,12.89,0,0,0,2.13,1.72c.82.53,1.93,1.2,3.32,2a24.63,24.63,0,0,1,5.42,4,7.42,7.42,0,0,1,1.94,5.44,8.64,8.64,0,0,1-1,4.07,8.27,8.27,0,0,1-3.16,3.22,10,10,0,0,1-5.23,1.26,12.48,12.48,0,0,1-3.46-.44,17.57,17.57,0,0,1-3.06-1.22,3.49,3.49,0,0,0-.88-.23.56.56,0,0,0-.59.34,9.38,9.38,0,0,0-.38,1.46h-.37v-8.28h.37a9.39,9.39,0,0,0,3,5.49,8.2,8.2,0,0,0,5.45,1.87,7,7,0,0,0,3.86-.95,5.09,5.09,0,0,0,2-2.28,7.06,7.06,0,0,0,.56-2.7,6.46,6.46,0,0,0-1.63-4.54,20.23,20.23,0,0,0-4.94-3.6c-1.52-.87-2.65-1.54-3.38-2a14.35,14.35,0,0,1-2.23-1.86,8.74,8.74,0,0,1-1.8-2.7,9.46,9.46,0,0,1,.52-8.05,9,9,0,0,1,3.36-3.42,9.47,9.47,0,0,1,4.93-1.29,13.43,13.43,0,0,1,4.28.74,2,2,0,0,0,.93.18c.47,0,.79-.34,1-1h.34Z"/><path class="cls-1" d="M614,169.8v-.38h10.4a13.23,13.23,0,0,1,4.59.74,9.39,9.39,0,0,1,3.32,2,8.45,8.45,0,0,1,2,2.88,8.81,8.81,0,0,1,.66,3.38,9.23,9.23,0,0,1-.62,3.33,7.61,7.61,0,0,1-1.92,2.85,9.43,9.43,0,0,1-3.45,2,14.78,14.78,0,0,1-4.91.74c-.59,0-1.72-.09-3.4-.26v11.39q0,3.53,3.45,3.64v.36H614v-.36a3.75,3.75,0,0,0,2.44-.89,3.49,3.49,0,0,0,1-2.75v-25a4.66,4.66,0,0,0-.34-1.91,2.68,2.68,0,0,0-.81-1.09,3.66,3.66,0,0,0-1-.48l-.78-.2Zm6.65.79v15.57a18.44,18.44,0,0,0,3.27.31,8.32,8.32,0,0,0,5.23-1.65c1.42-1.1,2.14-3.14,2.14-6.11a9.39,9.39,0,0,0-1.89-6.05,6.87,6.87,0,0,0-5.71-2.37A16,16,0,0,0,620.67,170.59Z"/><path class="cls-1" d="M641.88,169.89h-.43v-.47h11a10.56,10.56,0,0,1,4.48.85,7.54,7.54,0,0,1,2.87,2.17,8.32,8.32,0,0,1,1.46,2.77,9.68,9.68,0,0,1,.44,2.87,8.49,8.49,0,0,1-.72,3.44,7.39,7.39,0,0,1-2.21,2.84A8.58,8.58,0,0,1,655,186v.09q2.85,1.43,5.25,5.69l2.87,5.05a15.67,15.67,0,0,0,3.11,4.29,4.59,4.59,0,0,0,2.31,1v.36h-5.77l-.69-1c-.21-.3-.44-.63-.69-1l-.63-1a7.74,7.74,0,0,0-.51-.77l-3.79-6.53a16.76,16.76,0,0,0-2.33-3.24,9.05,9.05,0,0,0-2.23-1.78,6.35,6.35,0,0,0-1.86-.68,12.39,12.39,0,0,0-1.95-.13v12.09q0,3.53,3.44,3.64v.36H641.45v-.36a4.82,4.82,0,0,0,1.68-.37,2.75,2.75,0,0,0,1.21-1.12,4.05,4.05,0,0,0,.49-2.15v-25a3.53,3.53,0,0,0-.93-2.78A3,3,0,0,0,641.88,169.89Zm6.22,15.61h1.81a11,11,0,0,0,4.66-.85,5.51,5.51,0,0,0,2.64-2.43,8.45,8.45,0,0,0,.81-3.87,10,10,0,0,0-.73-3.74,6.92,6.92,0,0,0-2.48-3.07,8,8,0,0,0-4.73-1.25,7.79,7.79,0,0,0-2,.21Z"/><path class="cls-1" d="M689.42,169l10.27,28.31a13.23,13.23,0,0,0,1.54,3.18,3.43,3.43,0,0,0,1.38,1.25,6.32,6.32,0,0,0,1.69.35v.36H693.1v-.36a8.61,8.61,0,0,0,2.65-.32c.63-.21.94-.77.94-1.7a6.53,6.53,0,0,0-.45-2,.69.69,0,0,1-.09-.27l-3-8.78H681.23l-2.73,8.13a8.88,8.88,0,0,0-.56,2.67,2,2,0,0,0,.73,1.85,3.85,3.85,0,0,0,2,.46v.36h-8.05v-.36a4.16,4.16,0,0,0,2.76-1.27,9.36,9.36,0,0,0,1.8-3.38L686.91,169Zm-7.8,18.8h10.92L687,172.13h-.09Z"/><path class="cls-1" d="M734,176.82h-.37a7.1,7.1,0,0,0-2.19-4.1,11,11,0,0,0-4.07-2.46,13.74,13.74,0,0,0-4.31-.77,11.39,11.39,0,0,0-5.14,1.2,12.32,12.32,0,0,0-4.14,3.38,16.1,16.1,0,0,0-2.71,5.25,21.88,21.88,0,0,0-1,6.66,21.1,21.1,0,0,0,.94,6.44,15.12,15.12,0,0,0,2.73,5.17,12.07,12.07,0,0,0,4.17,3.31,12.23,12.23,0,0,0,5.25,1.12,16,16,0,0,0,5.3-1,13.67,13.67,0,0,0,5.21-3.4v1.28a24.69,24.69,0,0,1-5.25,3.38,14.32,14.32,0,0,1-5.93,1.08,16.27,16.27,0,0,1-6.83-1.42,15.56,15.56,0,0,1-5.22-3.85,16.92,16.92,0,0,1-3.23-5.45,18,18,0,0,1-1.1-6.24,18.26,18.26,0,0,1,2.28-9,17.46,17.46,0,0,1,6.18-6.55,15.77,15.77,0,0,1,8.46-2.41,22.9,22.9,0,0,1,6,.87l2.24.65a5.5,5.5,0,0,0,1.09.14,1.72,1.72,0,0,0,1.12-.26,1.79,1.79,0,0,0,.43-.93h.35Z"/><path class="cls-1" d="M765.1,184.54V173.48a4.06,4.06,0,0,0-.84-2.65,3.17,3.17,0,0,0-2.6-1v-.38h10.1v.38a3.13,3.13,0,0,0-2.59,1,4.16,4.16,0,0,0-.82,2.66v25q0,3.65,3.41,3.64v.36h-10.1v-.36a3.45,3.45,0,0,0,2.53-.91,3.63,3.63,0,0,0,.91-2.68v-13H746.93v12.92a3.67,3.67,0,0,0,.94,2.68,3.35,3.35,0,0,0,2.51,1v.36h-10.1v-.36a3.22,3.22,0,0,0,2.51-1,3.82,3.82,0,0,0,.87-2.68v-25q0-3.67-3.38-3.68v-.38h10.1v.38a3.18,3.18,0,0,0-2.62,1,4.11,4.11,0,0,0-.83,2.66v11.06Z"/><path class="cls-1" d="M778,169.8v-.38h18.9v5.2h-.3q0-4.17-5.34-4.17h-6.61v15h5.81a7.69,7.69,0,0,0,3.08-.58,2.89,2.89,0,0,0,1.55-2.67h.33v7.49h-.33a4.13,4.13,0,0,0-.73-2,2.8,2.8,0,0,0-1.07-.91,2.43,2.43,0,0,0-.93-.23,9.49,9.49,0,0,0-1.62-.13h-6.09V198.2a4.93,4.93,0,0,0,.49,2.29c.32.64,1.07,1,2.25,1h4.71a6.66,6.66,0,0,0,2.8-.52,4.16,4.16,0,0,0,1.73-1.44,8.49,8.49,0,0,0,1.07-2.22h.3l-1.1,5.19H778v-.36h.43a3,3,0,0,0,2-.86,3.5,3.5,0,0,0,1-2.78v-24.9a5.13,5.13,0,0,0-.66-2.65,2.45,2.45,0,0,0-2.29-1.12Z"/></svg>